<svg version="1.2" xmlns="http://www.w3.org/2000/svg" viewBox="0 0 85 89" width="85" height="89">
	
	<style>
		.s0 { fill: #0f0000 } 
		.s1 { fill: none;stroke: #0f0000;stroke-linecap: round;stroke-linejoin: round;stroke-width: 1.3 } 
		.s2 { fill: #31b7c3 } 
		.s3 { fill: none;stroke: #0f0000;stroke-miterlimit:10;stroke-width: 1.3 } 
		.s4 { fill: #31b7c3;stroke: #0f0000;stroke-linecap: round;stroke-linejoin: round;stroke-width: 1.3 } 
		.s5 { fill: #ffffff;stroke: #0f0000;stroke-linecap: round;stroke-linejoin: round;stroke-width: 1.3 } 
		.s6 { fill: #ffffff } 
		.s7 { fill: none;stroke: #0f0000;stroke-linecap: round;stroke-linejoin: round;stroke-width: .7 } 
	</style>
	
	<g id="g22">
		<path id="path24" class="s0" d="m77.06 85.48h-65.99c-3.46 0-6.27-2.81-6.27-6.27v-65.99c0-3.47 2.81-6.28 6.27-6.28h65.99c3.47 0 6.28 2.81 6.28 6.28v65.99c0 3.46-2.81 6.27-6.28 6.27z"/>
	</g>
	<g id="g26">
		<path id="path28" class="s1" d="m77.06 85.48h-65.99c-3.46 0-6.27-2.81-6.27-6.27v-65.99c0-3.47 2.81-6.28 6.27-6.28h65.99c3.47 0 6.28 2.81 6.28 6.28v65.99c0 3.46-2.81 6.27-6.28 6.27z"/>
	</g>
	<g id="g30">
		<path id="path32" class="s2" d="m74.4 82.82h-66c-3.46 0-6.27-2.81-6.27-6.28v-65.99c0-3.47 2.81-6.27 6.27-6.27h66c3.46 0 6.27 2.8 6.27 6.27v65.99c0 3.47-2.81 6.28-6.27 6.28z"/>
	</g>
	<g id="g34">
		<path id="path36" class="s3" d="m74.4 82.82h-66c-3.46 0-6.27-2.81-6.27-6.28v-65.99c0-3.47 2.81-6.27 6.27-6.27h66c3.46 0 6.27 2.8 6.27 6.27v65.99c0 3.47-2.81 6.28-6.27 6.28z"/>
	</g>
	<path id="path38" class="s4" d="m68.64 25.75h-43.4v-21.48h43.4z"/>
	<path id="path40" class="s5" d="m28.04 25.74h26.31v-21.46h-26.31zm10.35-4.72h-5.36v-12.14h5.36z"/>
	<g id="g42">
		<path id="path44" class="s0" d="m20.86 10.66h-4.96c-0.64 0-1.15-0.51-1.15-1.15v-5.23h7.26v5.23c0 0.64-0.52 1.15-1.15 1.15z"/>
	</g>
	<g id="g46">
		<path id="path48" class="s6" d="m57.5 52.05c0 8.89-7.21 16.1-16.1 16.1-8.89 0-16.1-7.21-16.1-16.1 0-8.89 7.21-16.09 16.1-16.09 8.89 0 16.1 7.2 16.1 16.09z"/>
	</g>
	<g id="g50">
		<path id="path52" class="s3" d="m57.5 52.05c0 8.89-7.21 16.1-16.1 16.1-8.89 0-16.1-7.21-16.1-16.1 0-8.89 7.21-16.09 16.1-16.09 8.89 0 16.1 7.2 16.1 16.09z"/>
	</g>
	<g id="g54">
		<path id="path56" class="s0" d="m54.39 47.82l-3.8 1.24c-1-3.09-3.52-5.5-6.7-6.33l1.04-3.88c4.47 1.2 8.04 4.6 9.46 8.97z"/>
	</g>
	<g id="g58">
		<path id="path60" class="s0" d="m45.88 52.05c0 2.48-2.01 4.48-4.48 4.48-2.47 0-4.48-2-4.48-4.48 0-2.47 2.01-4.47 4.48-4.47 2.47 0 4.48 2 4.48 4.47z"/>
	</g>
	<g id="g62">
		<path id="path64" class="s0" d="m11.79 76.81h-4.99c-0.53 0-0.95-0.42-0.95-0.95v-8.39c0-0.53 0.42-0.95 0.95-0.95h4.99c0.53 0 0.95 0.42 0.95 0.95v8.39c0 0.53-0.42 0.95-0.95 0.95z"/>
	</g>
	<g id="g66">
		<path id="path68" class="s0" d="m76 76.81h-4.99c-0.52 0-0.95-0.42-0.95-0.95v-8.39c0-0.53 0.43-0.95 0.95-0.95h4.99c0.53 0 0.95 0.42 0.95 0.95v8.39c0 0.53-0.42 0.95-0.95 0.95z"/>
	</g>
	<g id="g70">
		<path id="path72" class="s7" d="m24.66 78.94h52.29"/>
	</g>
	<g id="g74">
		<path id="path76" class="s7" d="m5.85 78.94h15.53"/>
	</g>
	<g id="g78">
		<path id="path80" class="s7" d="m76.95 28.18v-17.52"/>
	</g>
	<g id="g82">
		<path id="path84" class="s7" d="m76.95 63.66v-31.82"/>
	</g>
</svg>