<svg version="1.2" xmlns="http://www.w3.org/2000/svg" viewBox="0 0 88 83" width="88" height="83">
	
	<style>
		.s0 { fill: #0f0000 } 
		.s1 { fill: none;stroke: #0f0000;stroke-linecap: round;stroke-linejoin: round;stroke-width: 1.3 } 
		.s2 { fill: #ffffff } 
		.s3 { fill: #ffbd1d } 
		.s4 { fill: #ffbd1d;stroke: #0f0000;stroke-linecap: round;stroke-linejoin: round;stroke-width: 1.3 } 
		.s5 { fill: none;stroke: #0f0000;stroke-linecap: round;stroke-linejoin: round;stroke-width: .7 } 
	</style>
	
	<g id="g166">
		<path id="path168" class="s0" d="m84.69 20.12v55.82c0 2.1-1.7 3.8-3.8 3.8h-70.94c-2.1 0-3.8-1.7-3.8-3.8v-64.63c0-2.1 1.7-3.8 3.8-3.8h22.94c1.2 0 2.34 0.58 3.05 1.55l5.36 7.27h39.59c2.1 0 3.8 1.7 3.8 3.79z"/>
	</g>
	<g id="g170">
		<path id="path172" class="s1" d="m84.69 20.12v55.82c0 2.1-1.7 3.8-3.8 3.8h-70.94c-2.1 0-3.8-1.7-3.8-3.8v-64.63c0-2.1 1.7-3.8 3.8-3.8h22.94c1.2 0 2.34 0.58 3.05 1.55l5.36 7.27h39.59c2.1 0 3.8 1.7 3.8 3.79z"/>
	</g>
	<g id="g174">
		<path id="path176" class="s2" d="m29.18 7.91h43.24c1.74 0 3.15 1.41 3.15 3.15v8.34h-46.39z"/>
	</g>
	<g id="g178">
		<path id="path180" class="s1" d="m29.18 7.91h43.24c1.74 0 3.15 1.41 3.15 3.15v8.34h-46.39z"/>
	</g>
	<g id="g182">
		<path id="path184" class="s3" d="m82.02 17.45v55.82c0 2.1-1.7 3.8-3.8 3.8h-70.94c-2.1 0-3.8-1.7-3.8-3.8v-64.63c0-2.1 1.7-3.8 3.8-3.8h22.94c1.21 0 2.34 0.58 3.06 1.55l5.35 7.27h39.59c2.1 0 3.8 1.7 3.8 3.79z"/>
	</g>
	<g id="g186">
		<path id="path188" class="s1" d="m82.02 17.45v55.82c0 2.1-1.7 3.8-3.8 3.8h-70.94c-2.1 0-3.8-1.7-3.8-3.8v-64.63c0-2.1 1.7-3.8 3.8-3.8h22.94c1.21 0 2.34 0.58 3.06 1.55l5.35 7.27h39.59c2.1 0 3.8 1.7 3.8 3.79z"/>
	</g>
	<g id="g190">
		<path id="path192" class="s4" d="m38.63 13.66h-16"/>
	</g>
	<g id="g194">
		<path id="path196" class="s5" d="m24.4 73.45h49.21"/>
	</g>
	<g id="g198">
		<path id="path200" class="s5" d="m8.5 73.45h12"/>
	</g>
	<g id="g202">
		<path id="path204" class="s5" d="m78.03 39.26v27.92"/>
	</g>
</svg>