<svg version="1.2" xmlns="http://www.w3.org/2000/svg" viewBox="0 0 89 84" width="89" height="84">
	
	<style>
		.s0 { fill: #0f0000 } 
		.s1 { fill: none;stroke: #0f0000;stroke-linecap: round;stroke-linejoin: round;stroke-width: 1.3 } 
		.s2 { fill: #ffffff } 
		.s3 { fill: #f27600 } 
		.s4 { fill: #f3cdad } 
		.s5 { fill: #31b7c3 } 
		.s6 { fill: none;stroke: #0f0000;stroke-miterlimit:10;stroke-width: 1.3 } 
		.s7 { fill: #ffbd1d } 
		.s8 { fill: #ffbd1d;stroke: #0f0000;stroke-linecap: round;stroke-linejoin: round;stroke-width: .7 } 
	</style>
	
	<g id="g206">
		<path id="path208" class="s0" d="m80.63 82.24h-69.01c-3.35 0-6.06-2.71-6.06-6.06v-65.34c0-3.35 2.71-6.06 6.06-6.06h69.01c3.34 0 6.06 2.71 6.06 6.06v65.34c0 3.35-2.72 6.06-6.06 6.06z"/>
	</g>
	<g id="g210">
		<path id="path212" class="s1" d="m80.63 82.24h-69.01c-3.35 0-6.06-2.71-6.06-6.06v-65.34c0-3.35 2.71-6.06 6.06-6.06h69.01c3.34 0 6.06 2.71 6.06 6.06v65.34c0 3.35-2.72 6.06-6.06 6.06z"/>
	</g>
	<g id="g214">
		<path id="path216" class="s2" d="m77.96 79.57h-69.01c-3.35 0-6.06-2.71-6.06-6.06v-65.34c0-3.35 2.71-6.06 6.06-6.06h69.01c3.35 0 6.06 2.71 6.06 6.06v65.34c0 3.35-2.71 6.06-6.06 6.06z"/>
	</g>
	<g id="g218">
		<path id="path220" class="s1" d="m77.96 79.57h-69.01c-3.35 0-6.06-2.71-6.06-6.06v-65.34c0-3.35 2.71-6.06 6.06-6.06h69.01c3.35 0 6.06 2.71 6.06 6.06v65.34c0 3.35-2.71 6.06-6.06 6.06z"/>
	</g>
	<g id="g222">
		<path id="path224" class="s3" d="m79.56 9.41v62.86c0 1.68-1.36 3.04-3.04 3.04h-66.13c-1.68 0-3.04-1.36-3.04-3.04v-62.86c0-1.68 1.36-3.04 3.04-3.04h66.13c1.68 0 3.04 1.36 3.04 3.04z"/>
	</g>
	<g id="g226">
		<path id="path228" class="s1" d="m79.56 9.41v62.86c0 1.68-1.36 3.04-3.04 3.04h-66.13c-1.68 0-3.04-1.36-3.04-3.04v-62.86c0-1.68 1.36-3.04 3.04-3.04h66.13c1.68 0 3.04 1.36 3.04 3.04z"/>
	</g>
	<g id="g230">
		<path id="path232" class="s4" d="m79.56 57.24v15.03c0 1.68-1.36 3.04-3.04 3.04h-25.36l1.28-20.54 9.64-9.65c1.48-1.48 3.88-1.48 5.36 0z"/>
	</g>
	<g id="g234">
		<path id="path236" class="s1" d="m79.56 57.24v15.03c0 1.68-1.36 3.04-3.04 3.04h-25.36l1.28-20.54 9.64-9.65c1.48-1.48 3.88-1.48 5.36 0z"/>
	</g>
	<g id="g238">
		<path id="path240" class="s5" d="m72.97 75.31h-62.58c-1.68 0-3.04-1.36-3.04-3.04v-23.95l16.13-16.14c1.76-1.75 4.61-1.75 6.37 0z"/>
	</g>
	<g id="g242">
		<path id="path244" class="s6" d="m72.97 75.31h-62.58c-1.68 0-3.04-1.36-3.04-3.04v-23.95l16.13-16.14c1.76-1.75 4.61-1.75 6.37 0z"/>
	</g>
	<g id="g246">
		<path id="path248" class="s7" d="m66.65 22.55c0 3.95-3.2 7.15-7.15 7.15-3.95 0-7.15-3.2-7.15-7.15 0-3.95 3.2-7.15 7.15-7.15 3.95 0 7.15 3.2 7.15 7.15z"/>
	</g>
	<g id="g250">
		<path id="path252" class="s1" d="m66.65 22.55c0 3.95-3.2 7.15-7.15 7.15-3.95 0-7.15-3.2-7.15-7.15 0-3.95 3.2-7.15 7.15-7.15 3.95 0 7.15 3.2 7.15 7.15z"/>
	</g>
	<g id="g254">
		<path id="path256" class="s8" d="m40.5 45.9l22.45 22.45"/>
	</g>
	<g id="g258">
		<path id="path260" class="s8" d="m33.12 38.52l5.74 5.74"/>
	</g>
	<g id="g262">
		<path id="path264" class="s8" d="m70.54 50.69l6.83 6.83"/>
	</g>
	<g id="g266">
		<path id="path268" class="s8" d="m77.37 47.11v-33.44"/>
	</g>
	<g id="g270">
		<path id="path272" class="s8" d="m13.37 8.81h19.75"/>
	</g>
</svg>