<svg version="1.2" xmlns="http://www.w3.org/2000/svg" viewBox="0 0 89 85" width="89" height="85">
	
	<style>
		.s0 { fill: #0f0000 } 
		.s1 { fill: none;stroke: #0f0000;stroke-linecap: round;stroke-linejoin: round;stroke-width: 1.3 } 
		.s2 { fill: #ffffff } 
		.s3 { fill: #7e70bf } 
		.s4 { fill: none;stroke: #0f0000;stroke-linecap: round;stroke-linejoin: round;stroke-width: .7 } 
		.s5 { fill: none;stroke: #0f0000;stroke-miterlimit:10;stroke-width: 1.3 } 
	</style>
	
	<g id="g274">
		<path id="path276" class="s0" d="m80.98 83.24h-69.01c-3.35 0-6.06-2.71-6.06-6.06v-65.34c0-3.35 2.71-6.06 6.06-6.06h69.01c3.35 0 6.06 2.71 6.06 6.06v65.34c0 3.35-2.71 6.06-6.06 6.06z"/>
	</g>
	<g id="g278">
		<path id="path280" class="s1" d="m80.98 83.24h-69.01c-3.35 0-6.06-2.71-6.06-6.06v-65.34c0-3.35 2.71-6.06 6.06-6.06h69.01c3.35 0 6.06 2.71 6.06 6.06v65.34c0 3.35-2.71 6.06-6.06 6.06z"/>
	</g>
	<g id="g282">
		<path id="path284" class="s2" d="m78.31 80.57h-69.01c-3.35 0-6.06-2.71-6.06-6.06v-65.34c0-3.35 2.71-6.06 6.06-6.06h69.01c3.35 0 6.06 2.71 6.06 6.06v65.34c0 3.35-2.71 6.06-6.06 6.06z"/>
	</g>
	<g id="g286">
		<path id="path288" class="s1" d="m78.31 80.57h-69.01c-3.35 0-6.06-2.71-6.06-6.06v-65.34c0-3.35 2.71-6.06 6.06-6.06h69.01c3.35 0 6.06 2.71 6.06 6.06v65.34c0 3.35-2.71 6.06-6.06 6.06z"/>
	</g>
	<g id="g290">
		<path id="path292" class="s3" d="m79.91 10.41v62.86c0 1.68-1.36 3.04-3.04 3.04h-66.13c-1.68 0-3.04-1.36-3.04-3.04v-62.86c0-1.68 1.36-3.04 3.04-3.04h66.13c1.68 0 3.04 1.36 3.04 3.04z"/>
	</g>
	<g id="g294">
		<path id="path296" class="s1" d="m79.91 10.41v62.86c0 1.68-1.36 3.04-3.04 3.04h-66.13c-1.68 0-3.04-1.36-3.04-3.04v-62.86c0-1.68 1.36-3.04 3.04-3.04h66.13c1.68 0 3.04 1.36 3.04 3.04z"/>
	</g>
	<g id="g298">
		<path id="path300" class="s4" d="m77.72 48.11v-33.44"/>
	</g>
	<g id="g302">
		<path id="path304" class="s4" d="m13.72 9.81h19.75"/>
	</g>
	<g id="g306">
		<path id="path308" class="s0" d="m31.28 26.17v27.54c-1.93-0.89-4.51-0.92-6.99 0.12-4.04 1.69-6.27 5.55-4.98 8.63 1.28 3.07 5.6 4.2 9.64 2.5 3.26-1.36 5.34-4.14 5.34-6.78v-24.96l25.41-5.51v19.19c-1.92-0.88-4.51-0.92-6.99 0.12-4.04 1.69-6.27 5.56-4.98 8.63 1.29 3.07 5.6 4.2 9.64 2.51 3.26-1.37 5.34-4.15 5.35-6.79v-24.31-7.67c0-0.93-0.86-1.62-1.77-1.43l-27.93 6.05c-1.02 0.22-1.74 1.12-1.74 2.16z"/>
	</g>
	<g id="g310">
		<path id="path312" class="s5" d="m31.28 26.17v27.54c-1.93-0.89-4.51-0.92-6.99 0.12-4.04 1.69-6.27 5.55-4.98 8.63 1.28 3.07 5.6 4.2 9.64 2.5 3.26-1.36 5.34-4.14 5.34-6.78v-24.96l25.41-5.51v19.19c-1.92-0.88-4.51-0.92-6.99 0.12-4.04 1.69-6.27 5.56-4.98 8.63 1.29 3.07 5.6 4.2 9.64 2.51 3.26-1.37 5.34-4.15 5.35-6.79v-24.31-7.67c0-0.93-0.86-1.62-1.77-1.43l-27.93 6.05c-1.02 0.22-1.74 1.12-1.74 2.16z"/>
	</g>
	<g id="g314">
		<path id="path316" class="s4" d="m77.72 50.15v10.66"/>
	</g>
</svg>