<svg version="1.2" xmlns="http://www.w3.org/2000/svg" viewBox="0 0 88 96" width="88" height="96">
	
	<style>
		.s0 { fill: #0f0000 } 
		.s1 { fill: none;stroke: #0f0000;stroke-linecap: round;stroke-linejoin: round;stroke-width: 1.3 } 
		.s2 { fill: #f3cdad } 
		.s3 { fill: none;stroke: #0f0000;stroke-miterlimit:10;stroke-width: 1.3 } 
		.s4 { fill: none;stroke: #0f0000;stroke-linecap: round;stroke-linejoin: round;stroke-width: .7 } 
		.s5 { fill: #ffbd1d } 
		.s6 { fill: #31b7c3 } 
		.s7 { fill: #eb4718 } 
		.s8 { fill: #f27600 } 
	</style>
	
	<g id="g318">
		<path id="path320" class="s0" d="m53.11 20.37c-3.1 0.01-6.74 0.44-10.58 1.37-1.68-4.45-3.17-8.23-4.19-10.43-4.18-9.03-9.62-5.93-9.62-5.93 0 0-5.93 1.98-1.98 11.12 0.91 2.11 2.59 5.47 4.63 9.4-6.6 3.39-12.96 8.52-17.62 16-13.9 22.28-6.17 39.24 7.22 39.07 11.73-0.14 17.2-9.29 22.2-5.12 4.6 3.83-4.02 20.55 11.98 17.29 16-3.26 26.09-19.22 28.74-32.42 3.96-19.65-3.7-40.36-30.78-40.35z"/>
	</g>
	<g id="g322">
		<path id="path324" class="s1" d="m53.11 20.37c-3.1 0.01-6.74 0.44-10.58 1.37-1.68-4.45-3.17-8.23-4.19-10.43-4.18-9.03-9.62-5.93-9.62-5.93 0 0-5.93 1.98-1.98 11.12 0.91 2.11 2.59 5.47 4.63 9.4-6.6 3.39-12.96 8.52-17.62 16-13.9 22.28-6.17 39.24 7.22 39.07 11.73-0.14 17.2-9.29 22.2-5.12 4.6 3.83-4.02 20.55 11.98 17.29 16-3.26 26.09-19.22 28.74-32.42 3.96-19.65-3.7-40.36-30.78-40.35z"/>
	</g>
	<g id="g326">
		<path id="path328" class="s2" d="m50.83 18.38c-11.22 0-29.26 5.33-39.37 21.53-13.89 22.27-6.17 39.23 7.23 39.07 11.73-0.14 17.19-9.3 22.2-5.12 4.59 3.83-4.02 20.54 11.98 17.29 15.99-3.26 26.08-19.23 28.74-32.42 3.96-19.66-3.7-40.37-30.78-40.35z"/>
	</g>
	<g id="g330">
		<path id="path332" class="s3" d="m50.83 18.38c-11.22 0-29.26 5.33-39.37 21.53-13.89 22.27-6.17 39.23 7.23 39.07 11.73-0.14 17.19-9.3 22.2-5.12 4.59 3.83-4.02 20.54 11.98 17.29 15.99-3.26 26.08-19.23 28.74-32.42 3.96-19.66-3.7-40.37-30.78-40.35z"/>
	</g>
	<g id="g334">
		<path id="path336" class="s4" d="m23.62 29.65c-3.9 2.89-7.52 6.61-10.46 11.32-6.87 11.01-8.86 21.75-5.43 29.02m2.17 3.3c2.18 2.4 5.14 3.69 8.59 3.69q0.09 0 0.17 0c5.2-0.06 9.02-2.04 12.38-3.78 2.33-1.2 4.7-2.42 7.03-2.42 1.39 0 2.76 0.42 4.1 1.54 2.32 1.94 2.32 5.46 2.31 8.87-0.01 3.07-0.02 6.24 1.57 7.54q1.73 1.4 6.42 0.46m4.75-1.43c12.29-4.91 20.15-18.11 22.43-29.42 2.27-11.3 0.37-21.69-5.22-28.51-5.14-6.27-13.07-9.45-23.57-9.45h-0.03"/>
	</g>
	<g id="g338">
		<path id="path340" class="s5" d="m30.8 55.73c0 4.48-3.63 8.11-8.11 8.11-4.47 0-8.1-3.63-8.1-8.11 0-4.48 3.63-8.11 8.1-8.11 4.48 0 8.11 3.63 8.11 8.11z"/>
	</g>
	<g id="g342">
		<path id="path344" class="s1" d="m30.8 55.73c0 4.48-3.63 8.11-8.11 8.11-4.47 0-8.1-3.63-8.1-8.11 0-4.48 3.63-8.11 8.1-8.11 4.48 0 8.11 3.63 8.11 8.11z"/>
	</g>
	<g id="g346">
		<path id="path348" class="s6" d="m62.84 32.81c0 2.61-2.11 4.73-4.72 4.73-2.61 0-4.72-2.12-4.72-4.73 0-2.61 2.11-4.72 4.72-4.72 2.61 0 4.72 2.11 4.72 4.72z"/>
	</g>
	<g id="g350">
		<path id="path352" class="s3" d="m62.84 32.81c0 2.61-2.11 4.73-4.72 4.73-2.61 0-4.72-2.12-4.72-4.73 0-2.61 2.11-4.72 4.72-4.72 2.61 0 4.72 2.11 4.72 4.72z"/>
	</g>
	<g id="g354">
		<path id="path356" class="s7" d="m76.89 48.96c0 4.13-3.35 7.47-7.47 7.47-4.13 0-7.47-3.34-7.47-7.47 0-4.12 3.34-7.46 7.47-7.46 4.12 0 7.47 3.34 7.47 7.46z"/>
	</g>
	<g id="g358">
		<path id="path360" class="s3" d="m76.89 48.96c0 4.13-3.35 7.47-7.47 7.47-4.13 0-7.47-3.34-7.47-7.47 0-4.12 3.34-7.46 7.47-7.46 4.12 0 7.47 3.34 7.47 7.46z"/>
	</g>
	<g id="g362">
		<path id="path364" class="s8" d="m36.05 9.32c-4.18-9.04-9.61-5.93-9.61-5.93 0 0-5.94 1.98-1.99 11.12 3.95 9.14 22.37 41.92 22.37 41.92l2.8-1.25 2.79-1.25c0 0-12.17-35.58-16.36-44.61z"/>
	</g>
	<g id="g366">
		<path id="path368" class="s1" d="m36.05 9.32c-4.18-9.04-9.61-5.93-9.61-5.93 0 0-5.94 1.98-1.99 11.12 3.95 9.14 22.37 41.92 22.37 41.92l2.8-1.25 2.79-1.25c0 0-12.17-35.58-16.36-44.61z"/>
	</g>
	<g id="g370">
		<path id="path372" class="s5" d="m48.27 41.99c2.4 6.83 4.14 11.94 4.14 11.94l-5.6 2.5c0 0-2.64-4.7-6.14-11.04z"/>
	</g>
	<g id="g374">
		<path id="path376" class="s1" d="m48.27 41.99c2.4 6.83 4.14 11.94 4.14 11.94l-5.6 2.5c0 0-2.64-4.7-6.14-11.04z"/>
	</g>
	<g id="g378">
		<path id="path380" class="s6" d="m52.41 53.93l-2.79 1.25-2.8 1.25c0 0-4.59 4.76-0.93 12.73 3.66 7.96 14.02 9.02 14.02 9.02 0 0 6.11-8.43 2.61-16.46-3.51-8.04-10.11-7.79-10.11-7.79z"/>
	</g>
	<g id="g382">
		<path id="path384" class="s3" d="m52.41 53.93l-2.79 1.25-2.8 1.25c0 0-4.59 4.76-0.93 12.73 3.66 7.96 14.02 9.02 14.02 9.02 0 0 6.11-8.43 2.61-16.46-3.51-8.04-10.11-7.79-10.11-7.79z"/>
	</g>
	<g id="g386">
		<path id="path388" class="s4" d="m43.24 46.05c2.52 4.72 4.28 8.02 4.28 8.02"/>
	</g>
	<g id="g390">
		<path id="path392" class="s4" d="m25.69 6.98c0 0-1.14 2.2 0.81 6.92 1.09 2.62 9.28 18.12 15.11 29.09"/>
	</g>
	<g id="g394">
		<path id="path396" class="s4" d="m48.12 58.09c0 0-2.61 5.78 1.15 11.66 3.2 5 9.36 6.55 9.36 6.55"/>
	</g>
</svg>