<svg version="1.2" xmlns="http://www.w3.org/2000/svg" viewBox="0 0 96 87" width="96" height="87">
	
	<style>
		.s0 { fill: #0f0000 } 
		.s1 { fill: none;stroke: #0f0000;stroke-linecap: round;stroke-linejoin: round;stroke-width: 1.3 } 
		.s2 { fill: #31b7c3 } 
		.s3 { fill: none;stroke: #0f0000;stroke-miterlimit:10;stroke-width: 1.3 } 
		.s4 { fill: none;stroke: #0f0000;stroke-linecap: round;stroke-linejoin: round;stroke-width: .7 } 
		.s5 { fill: #31b7c3;stroke: #0f0000;stroke-miterlimit:10;stroke-width: 1.3 } 
		.s6 { fill: #f27600 } 
		.s7 { fill: none;stroke: #0f0000;stroke-miterlimit:10;stroke-width: 2.7 } 
		.s8 { fill: #f3cdad } 
	</style>
	
	<g id="g86">
		<path id="path88" class="s0" d="m94.78 44.63c0 22.42-18.18 40.6-40.61 40.6-22.42 0-40.6-18.18-40.6-40.6 0-22.43 18.18-40.61 40.6-40.61 22.43 0 40.61 18.18 40.61 40.61z"/>
	</g>
	<g id="g90">
		<path id="path92" class="s1" d="m94.78 44.63c0 22.42-18.18 40.6-40.61 40.6-22.42 0-40.6-18.18-40.6-40.6 0-22.43 18.18-40.61 40.6-40.61 22.43 0 40.61 18.18 40.61 40.61z"/>
	</g>
	<g id="g94">
		<path id="path96" class="s2" d="m92.11 41.96c0 22.42-18.18 40.6-40.6 40.6-22.43 0-40.61-18.18-40.61-40.6 0-22.43 18.18-40.61 40.61-40.61 22.42 0 40.6 18.18 40.6 40.61z"/>
	</g>
	<g id="g98">
		<path id="path100" class="s3" d="m92.11 41.96c0 22.42-18.18 40.6-40.6 40.6-22.43 0-40.61-18.18-40.61-40.6 0-22.43 18.18-40.61 40.61-40.61 22.42 0 40.6 18.18 40.6 40.61z"/>
	</g>
	<g id="g102">
		<path id="path104" class="s4" d="m84.16 23.56c3.07 5.44 4.82 11.71 4.82 18.4 0 20.69-16.78 37.47-37.47 37.47-12.17 0-22.98-5.8-29.83-14.79"/>
	</g>
	<g id="g106">
		<path id="path108" class="s4" d="m54.18 4.58c10.31 0.73 19.48 5.63 25.81 13.03"/>
	</g>
	<g id="g110">
		<path id="path112" class="s3" d="m73.69 41.96c0 22.42-9.83 40.6-21.96 40.6-12.13 0-21.96-18.18-21.96-40.6 0-22.43 9.83-40.61 21.96-40.61 12.13 0 21.96 18.18 21.96 40.61z"/>
	</g>
	<g id="g114">
		<path id="path116" class="s3" d="m17.36 20c9.02 2.83 21 4.55 34.14 4.55 13.15 0 25.12-1.72 34.15-4.55"/>
	</g>
	<g id="g118">
		<path id="path120" class="s3" d="m17.4 63.96c9.05-2.85 21.1-4.6 34.33-4.6 13.04 0 24.95 1.69 33.96 4.48"/>
	</g>
	<g id="g122">
		<path id="path124" class="s3" d="m51.51 1.35v81.21"/>
	</g>
	<g id="g126">
		<path id="path128" class="s5" d="m10.9 41.96h81.21"/>
	</g>
	<g id="g130">
		<path id="path132" class="s6" d="m57.27 65.67c-2.21 2.21-5.78 2.21-7.97 0l-15.29-15.27q2.44-1.37 4.54-3.45 2.07-2.08 3.45-4.52l15.27 15.27c2.21 2.21 2.21 5.78 0 7.97z"/>
	</g>
	<g id="g134">
		<path id="path136" class="s7" d="m57.27 65.67c-2.21 2.21-5.78 2.21-7.97 0l-15.29-15.27q2.44-1.37 4.54-3.45 2.07-2.08 3.45-4.52l15.27 15.27c2.21 2.21 2.21 5.78 0 7.97z"/>
	</g>
	<g id="g138">
		<g id="g140">
		</g>
		<g id="g152">
			<g id="Clip-Path: g150" clip-path="url(#cp1)">
				<g id="g150" style="opacity: .5">
					<g id="g148">
						<path id="path146" class="s8" d="m38.55 16.76c8.34 8.34 8.34 21.86 0 30.19-8.34 8.34-21.86 8.34-30.2 0-8.34-8.33-8.34-21.85 0-30.19 8.34-8.34 21.86-8.34 30.2 0z"/>
					</g>
				</g>
			</g>
		</g>
	</g>
	<g id="g154">
		<path id="path156" class="s7" d="m38.55 16.76c8.34 8.34 8.34 21.86 0 30.19-8.34 8.34-21.86 8.34-30.2 0-8.34-8.33-8.34-21.85 0-30.19 8.34-8.34 21.86-8.34 30.2 0z"/>
	</g>
	<g id="g158">
		<path id="path160" class="s4" d="m17.23 46.49c-1.82-0.78-3.53-1.91-5.02-3.4-1.91-1.9-3.23-4.17-3.96-6.58"/>
	</g>
	<g id="g162">
		<path id="path164" class="s4" d="m7.72 29.56c0.48-3.27 1.97-6.42 4.49-8.94 6.21-6.21 16.27-6.21 22.47 0 6.21 6.2 6.21 16.27 0 22.47-4.09 4.1-9.86 5.49-15.1 4.18"/>
	</g>
</svg>